<svg id="Capa_1" enable-background="new 0 0 512 512" height="512" viewBox="0 0 512 512" width="512" xmlns="http://www.w3.org/2000/svg"><g><g><path d="m132.373 429.391h-61.796c0-233.001 188.89-421.891 421.891-421.891 2.07 0 4.14.01 6.2.041v61.816z" fill="#ff748f"/><path d="m262.912 112.66c0-13.429 1.137-26.59 3.289-39.407-117.603 74.875-195.623 206.394-195.623 356.138h61.796l177.871-174.831c-29.716-39.517-47.333-88.65-47.333-141.9z" fill="#fd5f7e"/><path d="m194.169 429.391h-61.796c0-96.185 37.459-186.613 105.465-254.62 68.017-68.017 158.445-105.475 254.63-105.475 2.07 0 4.14.021 6.2.062v61.806z" fill="#f9f097"/><path d="m265.788 149.569c-9.675 7.868-19.01 16.264-27.949 25.202-68.006 68.006-105.465 158.435-105.465 254.62h61.796l145.456-142.459c-38.566-35.342-65.361-83.311-73.838-137.363z" fill="#f9d888"/><path d="m255.965 429.391h-61.796c0-79.676 31.032-154.582 87.369-210.93 56.337-56.337 131.255-87.369 210.93-87.369 2.07 0 4.14.021 6.2.072v61.806z" fill="#60d9a7"/><path d="m285.824 214.278c-1.437 1.382-2.872 2.769-4.286 4.183-56.337 56.348-87.369 131.255-87.369 210.93h61.796l118.859-115.783c-38.376-23.812-69.429-58.302-89-99.33z" fill="#36d39a"/><path d="m317.761 429.391h-61.796c0-63.166 24.595-122.562 69.273-167.23 44.668-44.668 104.054-69.273 167.23-69.273 2.07 0 4.14.031 6.2.082v61.827z" fill="#a4e6ff"/><path d="m320.4 267.154c-41.607 44.055-64.435 101.394-64.435 162.237h61.796l98.747-95.301c-37.463-14.004-70.425-37.232-96.108-66.936z" fill="#81ddfd"/><path d="m498.669 254.797v61.847c-2.06-.113-4.12-.165-6.2-.165-30.156 0-58.51 11.741-79.84 33.071s-33.071 49.684-33.071 79.84h-61.796c0-46.666 18.168-90.541 51.167-123.53 32.999-32.999 76.874-51.177 123.54-51.177 2.07.001 4.14.032 6.2.114z" fill="#bc9bdd"/><path d="m366.582 308.265c-31.508 32.702-48.82 75.582-48.82 121.126h61.796c0-30.156 11.741-58.51 33.071-79.84 4.393-4.393 9.088-8.372 14.031-11.933-21.541-6.945-41.734-16.888-60.078-29.353z" fill="#b08bd7"/><path d="m385.958 398.222c-11.027-11.027-25.161-17.034-39.584-18.059 2.309-68.317-52.403-124.448-120.232-124.448-54.204 0-100.031 35.848-115.078 85.128-4.927-.917-10.001-1.42-15.194-1.42-45.585 0-82.538 36.954-82.538 82.538s36.953 82.539 82.538 82.539h246.066c15.933 0 31.866-6.078 44.022-18.234 24.312-24.313 24.312-63.731 0-88.044z" fill="#fbf1cf"/><path d="m77.79 358.023c0-5.633.219-11.214.644-16.738-37.208 8.004-65.102 41.076-65.102 80.676 0 45.584 36.954 82.539 82.538 82.539h39.493c-35.717-38.412-57.573-89.888-57.573-146.477z" fill="#fae0bd"/><g><g><g><ellipse cx="108.79" cy="434.794" fill="#ff9db0" rx="35.769" ry="28.485"/></g><g><ellipse cx="302.673" cy="434.794" fill="#ff9db0" rx="35.769" ry="28.485"/></g></g></g></g><g><path d="m129.636 414.874c4.142 0 7.5-3.357 7.5-7.5v-14.622c0-4.142-3.358-7.5-7.5-7.5s-7.5 3.358-7.5 7.5v14.622c0 4.142 3.358 7.5 7.5 7.5z"/><path d="m281.826 414.874c4.142 0 7.5-3.357 7.5-7.5v-14.622c0-4.142-3.358-7.5-7.5-7.5s-7.5 3.358-7.5 7.5v14.622c0 4.142 3.358 7.5 7.5 7.5z"/><path d="m205.731 423.578c9.856 0 19.229-4.269 25.716-11.712 2.721-3.123 2.396-7.86-.727-10.582-3.122-2.722-7.86-2.396-10.582.727-3.637 4.173-8.888 6.567-14.408 6.567s-10.771-2.394-14.408-6.567c-2.722-3.123-7.459-3.448-10.582-.727s-3.448 7.458-.727 10.582c6.489 7.443 15.862 11.712 25.718 11.712z"/><path d="m95.87 512h246.066c18.632 0 36.149-7.256 49.325-20.432 13.175-13.175 20.432-30.692 20.432-49.325 0-17.836-6.664-34.639-18.789-47.601 5.178-14.842 13.765-28.526 25.028-39.789 21.985-21.985 51.191-32.324 80.326-30.721 4.296.234 7.912-3.183 7.912-7.489v-61.847c0-13.932 0-235.093 0-247.256 0-4.098-3.289-7.437-7.386-7.499-2.099-.031-4.208-.041-6.315-.041-50.447 0-99.846 8.667-146.826 25.762-45.396 16.519-87.452 40.48-124.997 71.219-74.079 60.65-126.155 144.927-147.062 237.736-38.903 9.942-67.752 45.287-67.752 87.245 0 49.647 40.391 90.038 90.038 90.038zm311.455-167.752c-11.48 11.479-20.539 25.17-26.562 40.052-8.343-5.586-17.698-9.169-26.84-10.76-.198-10.772-1.745-21.236-4.376-31.004 29.741-48.712 82.39-79.863 141.622-80.336v46.787c-31.678.332-61.409 12.825-83.844 35.261zm83.844-205.641v46.784c-20.161.11-40.458 2.701-60 7.736-4.011 1.034-6.425 5.123-5.391 9.134 1.032 4.004 5.117 6.426 9.134 5.391 18.504-4.77 37.521-7.145 56.256-7.255v46.79c-58.95.417-113.786 29.098-147.883 77.529-6.777-15.45-16.456-29.044-28.063-40.336 24.148-29.514 55.777-53.277 92.679-67.924 3.843-1.526 5.734-5.879 4.204-9.738-1.522-3.836-5.868-5.736-9.738-4.204-37.835 15.018-71.176 39.108-98.485 72.028-12.826-9.88-27.264-17.139-42.684-21.501 54.04-70.494 137.21-114.033 229.971-114.434zm-401.609 193.539c21.015-87.243 70.652-166.3 140.589-223.559 36.234-29.666 76.818-52.79 120.623-68.729 44.927-16.348 92.157-24.708 140.397-24.856v46.796c-90.276.278-179.401 33.895-248.305 97.763-3.039 2.815-3.219 7.561-.403 10.599 2.838 3.054 7.577 3.204 10.599.403 63.814-59.154 147.978-93.42 238.109-93.752v46.783c-95.8.434-187.333 45.44-246.132 125.997-19.406-2.846-39.791-1.301-58.923 4.997 13.038-22.753 28.641-44.071 46.4-63.413 2.813-3.064 2.586-7.807-.453-10.597-3.068-2.816-7.812-2.582-10.597.453-23.862 25.998-43.069 54.366-57.686 83.417-27.157 15.256-47.517 39.671-57.831 68.05-5.7-.646-10.904-.711-16.387-.352zm20.131 16.07c3.756.7 7.432-1.532 8.546-5.183 0-.002.001-.003.001-.005 16.416-53.744 71.131-88.663 128.775-77.882h.001c41.442 7.75 75.173 38.243 87.211 78.494 3.558 11.898 5.063 24.147 4.653 36.269-.136 4.031 2.94 7.448 6.964 7.734 12.748.907 25.329 6.403 34.812 15.881 10.342 10.342 16.038 24.092 16.038 38.718s-5.696 28.376-16.038 38.719-24.093 16.039-38.718 16.039h-246.066c-41.376 0-75.038-33.662-75.038-75.039 0-46.721 42.533-82.355 88.859-73.745z"/></g></g></svg>