<svg id="Capa_1" enable-background="new 0 0 512 512" height="512" viewBox="0 0 512 512" width="512" xmlns="http://www.w3.org/2000/svg"><g><g><path d="m272.57 24.067c0-9.15-7.417-16.567-16.567-16.567-9.149 0-16.567 7.417-16.567 16.567v414.167c0 36.54 29.727 66.267 66.267 66.267s66.267-29.727 66.267-66.267v-16.567c0-9.15-7.417-16.567-16.567-16.567s-16.567 7.417-16.567 16.567v16.567c0 18.27-14.864 33.133-33.133 33.133s-33.133-14.864-33.133-33.133z" fill="#dad8db"/><g fill="#b6b1b7"><path d="m249.541 24.067v414.167c0 18.269 14.864 33.133 33.133 33.133 4.047 0 7.926-.732 11.515-2.067-12.61-4.689-21.619-16.845-21.619-31.066v-414.167c0-9.15-7.417-16.567-16.567-16.567-4.478 0-8.533 1.784-11.515 4.67 3.112 3.012 5.053 7.225 5.053 11.897z"/><path d="m355.404 405.1c-4.478 0-8.533 1.784-11.515 4.67 3.111 3.012 5.052 7.224 5.052 11.896v16.567c0 32.611-23.685 59.776-54.752 65.244 3.743.659 7.586 1.022 11.515 1.022 36.54 0 66.267-29.727 66.267-66.267v-16.567c-.001-9.148-7.418-16.565-16.567-16.565z"/></g><path d="m338.859 289.134c1.336 0 2.572-.668 3.339-1.761 16.701-23.785 44.982-39.656 79.514-39.656 34.814 0 61.269 16.131 77.852 40.24.504.733 1.33 1.178 2.22 1.177 1.498 0 2.721-1.224 2.705-2.722-1.459-135.989-112.151-245.779-248.486-245.779h-.008c-136.335 0-247.026 109.79-248.485 245.779-.016 1.498 1.207 2.722 2.705 2.722.89 0 1.716-.444 2.22-1.177 16.582-24.109 43.038-40.24 77.852-40.24 34.532 0 62.813 15.871 79.514 39.656.768 1.093 2.003 1.761 3.339 1.761l82.86-110.134z" fill="#ff8086"/><path d="m173.17 289.132c1.325-.009 2.55-.674 3.312-1.76 16.701-23.785 44.982-39.656 79.514-39.656h.006c34.531 0 62.813 15.871 79.514 39.656.764 1.088 1.992 1.753 3.32 1.76 0-137.242-37.086-248.499-82.833-248.499s-82.833 111.257-82.833 248.499z" fill="#ffe07d"/><path d="m256.003 40.633h-.008c-3.854 0-7.685.1-11.496.274 124.687 5.679 225.422 103.234 236.072 226.563 7.314 5.828 13.665 12.742 18.991 20.487.504.733 1.33 1.178 2.22 1.178 1.498-.001 2.721-1.224 2.705-2.722-1.457-135.99-112.149-245.78-248.484-245.78z" fill="#e5646e"/><path d="m256.003 40.633c-3.903 0-7.741.829-11.5 2.395 37.885 15.789 67.57 108.434 70.996 223.762 7.793 5.822 14.533 12.771 20.017 20.581.764 1.088 1.992 1.753 3.32 1.76.001-137.241-37.085-248.498-82.833-248.498z" fill="#ffd064"/></g><path d="m436.101 107.197c-42.499-42.072-97.193-67.481-156.031-72.941v-10.189c0-13.271-10.796-24.067-24.067-24.067s-24.066 10.796-24.066 24.067v10.184c-45.859 4.247-89.291 20.631-126.802 48.035-3.345 2.443-4.075 7.136-1.632 10.48 2.444 3.345 7.136 4.075 10.48 1.632 32.281-23.583 69.224-38.5 108.319-43.94-12.114 13.173-22.999 33.624-31.986 60.587-14.449 43.348-22.995 99.564-24.428 159.89-19.143-19.683-45.923-30.719-75.6-30.719-29.685 0-55.713 11.176-74.698 31.774 4.222-60.864 30.842-116.863 75.876-158.958 3.026-2.828 3.186-7.574.357-10.601-2.828-3.026-7.573-3.186-10.601-.357-25.031 23.396-44.819 51.039-58.816 82.16-14.478 32.196-22.013 66.546-22.395 102.098-.029 2.738 1.017 5.321 2.945 7.271 1.933 1.954 4.51 3.031 7.259 3.032 3.353 0 6.494-1.655 8.4-4.427 16.407-23.854 41.86-36.99 71.672-36.99 30.358 0 57.103 13.291 73.376 36.465 2.176 3.099 5.718 4.95 9.474 4.952h.004c3.757 0 7.3-1.85 9.479-4.951 11.801-16.807 29.112-28.409 49.316-33.52v60.087c0 4.142 3.358 7.5 7.5 7.5s7.5-3.358 7.5-7.5v-62.624c2.981-.267 6.004-.409 9.066-.409s6.085.142 9.067.409v125.408h-18.133v-32.785c0-4.142-3.358-7.5-7.5-7.5s-7.5 3.358-7.5 7.5v89.983c0 40.675 33.092 73.767 73.767 73.767s73.767-33.092 73.767-73.767v-16.567c0-13.27-10.796-24.066-24.066-24.066s-24.067 10.796-24.067 24.066v16.567c0 14.134-11.499 25.633-25.633 25.633-14.135 0-25.634-11.499-25.634-25.633v-180.07c20.199 5.111 37.509 16.714 49.311 33.521 2.178 3.1 5.721 4.949 9.477 4.949h.004c3.757-.001 7.299-1.853 9.475-4.952 16.272-23.174 43.017-36.465 73.376-36.465 29.811 0 55.266 13.137 71.67 36.987 1.906 2.774 5.047 4.431 8.404 4.431 2.747-.001 5.325-1.078 7.258-3.033 1.929-1.951 2.975-4.533 2.944-7.27-.728-67.791-27.679-131.409-75.888-179.134zm-130.397 371.67c22.405 0 40.633-18.228 40.633-40.633v-16.567c0-4.999 4.067-9.066 9.067-9.066 4.999 0 9.066 4.067 9.066 9.066v16.567c0 32.404-26.362 58.767-58.767 58.767s-58.767-26.363-58.767-58.767v-42.2h18.133v42.2c.001 22.405 18.229 40.633 40.635 40.633zm-58.767-454.8c0-5 4.067-9.067 9.066-9.067s9.066 4.067 9.066 9.067v9.242c-3.013-.104-6.032-.176-9.062-.176-.001 0-.003 0-.004 0s-.001 0-.002 0c-.002 0-.004 0-.005 0-3.028 0-6.047.061-9.059.165zm9.06 216.15c-29.414 0-55.987 10.836-75.093 30.19 1.456-58.517 9.721-112.852 23.643-154.618 14.332-42.996 33.087-67.656 51.457-67.656s37.125 24.66 51.457 67.656c13.922 41.768 22.187 96.105 23.643 154.625-19.108-19.359-45.685-30.197-75.107-30.197zm165.715 0c-29.675 0-56.452 11.033-75.594 30.711-1.434-60.323-9.979-116.536-24.428-159.883-8.973-26.917-19.835-47.346-31.925-60.522 111.022 15.767 198.56 108.035 206.63 221.452-18.983-20.589-45.005-31.758-74.683-31.758z"/></g></svg>