<svg xmlns="http://www.w3.org/2000/svg" width="22" height="18" viewBox="0 0 22 18" fill="none">
<path fill-rule="evenodd" clip-rule="evenodd" d="M11.3087 0.491746C11.7751 -0.0927075 12.6012 -0.166738 13.154 0.326395L21.535 7.8033C21.8267 8.06358 21.9965 8.4455 21.9999 8.8491C22.0034 9.2527 21.8401 9.63779 21.5528 9.90357L13.1719 17.6574C12.6276 18.161 11.8003 18.1026 11.324 17.5271C10.8478 16.9516 10.9029 16.0769 11.4472 15.5733L17.2052 10.2462H1.30952C0.586294 10.2462 0 9.62624 0 8.86154C0 8.09684 0.586294 7.47693 1.30952 7.47693H17.1078L11.465 2.44289C10.9123 1.94976 10.8423 1.0762 11.3087 0.491746Z" fill="#FF6024"/>
</svg>