<svg width="20" height="17" viewBox="0 0 20 17" fill="none" xmlns="http://www.w3.org/2000/svg">
<path d="M19.1377 5.00834C19.1377 2.24691 16.8911 0 14.1303 0C12.1041 0 10.3563 1.2098 9.56853 2.94411C8.78144 1.2098 7.03327 0 5.00802 0C2.24594 0 0 2.24691 0 5.00834C0 5.59085 0.0998771 6.14952 0.284166 6.67017C0.493585 7.26298 0.810936 7.80425 1.21334 8.2711C1.38507 8.47085 1.57129 8.65643 1.77265 8.82686L9.41098 16.414C9.45802 16.461 9.51924 16.4845 9.58109 16.4845C9.6436 16.4845 9.70514 16.461 9.7525 16.414L17.6743 8.54334L17.6737 8.54238C18.1873 8.02785 18.5897 7.40313 18.8419 6.70625C19.033 6.17594 19.1377 5.60406 19.1377 5.00834Z" fill="#FF6024"/>
</svg>
