<svg xmlns="http://www.w3.org/2000/svg" width="18" height="19" viewBox="0 0 18 19" fill="none">
<path d="M16.1878 9.27518C16.0182 9.27518 15.8503 9.30832 15.6936 9.37271C15.537 9.43711 15.3947 9.53148 15.275 9.65042C15.1552 9.76937 15.0604 9.91055 14.9958 10.0659C14.9312 10.2212 14.8983 10.3876 14.8988 10.5556C14.8988 11.714 14.5519 12.8464 13.9021 13.8095C13.2522 14.7727 12.3285 15.5234 11.2478 15.9667C10.1672 16.41 8.978 16.526 7.83076 16.3C6.68351 16.074 5.6297 15.5162 4.80259 14.6971C3.97547 13.878 3.41219 12.8344 3.18399 11.6982C2.95579 10.5621 3.07292 9.38441 3.52055 8.31419C3.96818 7.24396 4.72621 6.32922 5.6988 5.68564C6.67139 5.04207 7.81484 4.69856 8.98456 4.69856V6.85921L14.7795 3.4296L8.98456 0V2.16446C7.30294 2.16749 5.66 2.66442 4.26364 3.59239C2.86727 4.52037 1.78022 5.83767 1.14004 7.37764C0.499856 8.9176 0.335303 10.611 0.667203 12.2436C0.999102 13.8762 1.81254 15.3746 3.00459 16.5493C4.19664 17.7239 5.71374 18.522 7.36392 18.8426C9.01411 19.1631 10.7232 18.9917 12.275 18.3501C13.8268 17.7084 15.1516 16.6253 16.0816 15.2379C17.0117 13.8504 17.5053 12.2209 17.5 10.5556C17.5005 10.3857 17.4668 10.2174 17.4008 10.0605C17.3348 9.90369 17.2379 9.76148 17.1156 9.64223C16.9934 9.52298 16.8484 9.42909 16.6891 9.36606C16.5298 9.30303 16.3594 9.27213 16.1878 9.27518Z" fill="#333333"/>
</svg>